HIERARCHY
ROOT Hips
{
	OFFSET 0.000000 0.000000 0.000000
	CHANNELS 6 Xposition Yposition Zposition Zrotation Yrotation Xrotation 
	JOINT LHipJoint
	{
		OFFSET 0.000000 0.000000 0.000000
		CHANNELS 3 Zrotation Yrotation Xrotation
		JOINT LeftUpLeg
		{
			OFFSET 1.363060 -1.794630 0.839290
			CHANNELS 3 Zrotation Yrotation Xrotation
			JOINT LeftLeg
			{
				OFFSET 2.448110 -6.726130 0.000000
				CHANNELS 3 Zrotation Yrotation Xrotation
				JOINT LeftFoot
				{
					OFFSET 2.562200 -7.039590 0.000000
					CHANNELS 3 Zrotation Yrotation Xrotation
					JOINT LeftToeBase
					{
						OFFSET 0.157640 -0.433110 2.322550
						CHANNELS 3 Zrotation Yrotation Xrotation
						End Site
						{
							OFFSET 0.000000 0.000000 0.000000
						}
					}
				}
			}
		}
	}
	JOINT RHipJoint
	{
		OFFSET 0.000000 0.000000 0.000000
		CHANNELS 3 Zrotation Yrotation Xrotation
		JOINT RightUpLeg
		{
			OFFSET -1.305520 -1.794630 0.839290
			CHANNELS 3 Zrotation Yrotation Xrotation
			JOINT RightLeg
			{
				OFFSET -2.542530 -6.985550 0.000000
				CHANNELS 3 Zrotation Yrotation Xrotation
				JOINT RightFoot
				{
					OFFSET -2.568260 -7.056230 0.000000
					CHANNELS 3 Zrotation Yrotation Xrotation
					JOINT RightToeBase
					{
						OFFSET -0.164730 -0.452590 2.363150
						CHANNELS 3 Zrotation Yrotation Xrotation
						End Site
						{
							OFFSET 0.000000 0.000000 0.000000
						}
					}
				}
			}
		}
	}
	JOINT LowerBack
	{
		OFFSET 0.000000 0.000000 0.000000
		CHANNELS 3 Zrotation Yrotation Xrotation
		JOINT Spine
		{
			OFFSET 0.028270 2.035590 -0.193380
			CHANNELS 3 Zrotation Yrotation Xrotation
			JOINT Spine1
			{
				OFFSET 0.056720 2.048850 -0.042750
				CHANNELS 3 Zrotation Yrotation Xrotation
				JOINT Neck
				{
					OFFSET 0.000000 0.000000 0.000000
					CHANNELS 3 Zrotation Yrotation Xrotation
					JOINT Neck1
					{
						OFFSET -0.054170 1.746240 0.172020
						CHANNELS 3 Zrotation Yrotation Xrotation
						JOINT Head
						{
							OFFSET 0.104070 1.761360 -0.123970
							CHANNELS 3 Zrotation Yrotation Xrotation
							End Site
							{
								OFFSET 0.000000 0.000000 0.000000
							}
						}
					}
				}
				JOINT LeftShoulder
				{
					OFFSET 0.000000 0.000000 0.000000
					CHANNELS 3 Zrotation Yrotation Xrotation
					JOINT LeftArm
					{
						OFFSET 3.362410 1.200890 -0.311210
						CHANNELS 3 Zrotation Yrotation Xrotation
						JOINT LeftForeArm
						{
							OFFSET 4.983000 -0.000000 -0.000000
							CHANNELS 3 Zrotation Yrotation Xrotation
							JOINT LeftHand
							{
								OFFSET 3.483560 -0.000000 -0.000000
								CHANNELS 3 Zrotation Yrotation Xrotation
								JOINT LeftFingerBase
								{
									OFFSET 0.000000 0.000000 0.000000
									CHANNELS 3 Zrotation Yrotation Xrotation
									JOINT LeftHandIndex1
									{
										OFFSET 0.715260 -0.000000 -0.000000
										CHANNELS 3 Zrotation Yrotation Xrotation
										End Site
										{
											OFFSET 0.000000 0.000000 0.000000
										}
									}
								}
								JOINT LThumb
								{
									OFFSET 0.000000 0.000000 0.000000
									CHANNELS 3 Zrotation Yrotation Xrotation
									End Site
									{
										OFFSET 0.000000 0.000000 0.000000
									}
								}
							}
						}
					}
				}
				JOINT RightShoulder
				{
					OFFSET 0.000000 0.000000 0.000000
					CHANNELS 3 Zrotation Yrotation Xrotation
					JOINT RightArm
					{
						OFFSET -3.136600 1.374050 -0.404650
						CHANNELS 3 Zrotation Yrotation Xrotation
						JOINT RightForeArm
						{
							OFFSET -5.241900 -0.000000 -0.000000
							CHANNELS 3 Zrotation Yrotation Xrotation
							JOINT RightHand
							{
								OFFSET -3.444170 -0.000000 -0.000000
								CHANNELS 3 Zrotation Yrotation Xrotation
								JOINT RightFingerBase
								{
									OFFSET 0.000000 0.000000 0.000000
									CHANNELS 3 Zrotation Yrotation Xrotation
									JOINT RightHandIndex1
									{
										OFFSET -0.622530 -0.000000 -0.000000
										CHANNELS 3 Zrotation Yrotation Xrotation
										End Site
										{
											OFFSET 0.000000 0.000000 0.000000
										}
									}
								}
								JOINT RThumb
								{
									OFFSET 0.000000 0.000000 0.000000
									CHANNELS 3 Zrotation Yrotation Xrotation
									End Site
									{
										OFFSET 0.000000 0.000000 0.000000
									}
								}
							}
						}
					}
				}
			}
		}
	}
}
MOTION
Frames: 10
Frame Time: 0.008333
3.529231 17.244763 1.051725 -175.155431 -76.218514 -173.411557 -11.734177 2.879611 0.450737 -4.468495 22.429199 -15.171785 -2.690571 -0.857860 -4.489709 0.647617 4.776377 3.971564 1.031800 0.000000 -36.363800 9.302451 -0.885427 3.186490 2.627631 1.169976 -12.334228 2.684752 1.997496 -1.878253 0.260190 -2.201557 2.305760 -1.398300 -0.000000 -44.417000 2.095285 -6.462528 -4.741745 0.082297 -6.684324 -3.732461 -7.350985 -6.641416 -1.790720 12.383030 -9.618682 -1.070794 -2.351248 -0.260843 1.873309 0.000000 0.000000 0.000000 18.336855 -10.933384 1.823064 3.545167 -54.449611 -60.402957 2.073314 -5.714180 -0.036060 4.203532 -1.263219 -0.064108 0.012785 0.477167 0.000000 0.000000 0.000000 0.000000 0.000000 0.000000 0.000000 5.506581 -9.123979 -4.300126 87.515058 24.471160 39.295315 -178.998419 60.295865 179.869479 -10.648334 14.573876 -1.484004 0.173309 -0.979940 -0.000000 0.000000 0.000000 0.000000 0.000000 0.000000 0.000000 
3.525358 17.242575 1.048760 -175.549735 -76.124786 -173.118292 -11.751459 2.880139 0.419242 -4.479665 22.503977 -15.055045 -2.694713 -0.855128 -4.381135 0.652148 4.827290 3.879015 1.032200 0.000001 -36.349800 9.293218 -0.899608 3.191248 2.538035 1.217496 -12.250105 2.671365 1.983556 -1.825438 0.262767 -2.143155 2.231398 -1.378900 0.000000 -44.515600 2.117923 -6.399789 -4.726532 0.081786 -6.621279 -3.764597 -7.349274 -6.591374 -1.910895 12.275951 -9.728677 -0.938069 -2.392544 -0.265240 1.912053 0.000000 0.000000 0.000000 17.798641 -10.821861 1.473652 1.205938 -54.254578 -57.782388 2.284915 -8.904217 -0.039774 4.282208 -1.490647 -0.074746 0.031906 0.512513 0.000000 0.000000 0.000000 0.000000 0.000000 0.000000 0.000000 5.417281 -9.217112 -4.210382 87.534311 24.256602 39.200031 -179.008670 60.316242 179.869109 -10.649913 14.530782 -1.480279 0.173731 -0.981833 -0.000000 0.000000 0.000000 0.000000 0.000000 0.000000 0.000000 
3.522084 17.240153 1.045241 -175.932353 -76.062817 -172.852639 -11.766639 2.878679 0.386991 -4.478309 22.558997 -14.916551 -2.696392 -0.852369 -4.270836 0.656928 4.882390 3.785412 1.033200 0.000000 -36.333700 9.286421 -0.914357 3.188981 2.451045 1.248915 -12.145413 2.655803 1.966735 -1.761097 0.264354 -2.090451 2.141003 -1.360300 0.000000 -44.610100 2.142389 -6.324445 -4.701341 0.075543 -6.545894 -3.798891 -7.365552 -6.529150 -2.043632 12.164894 -9.829730 -0.781757 -2.437651 -0.270194 1.957435 0.000000 0.000000 0.000000 17.171915 -10.711234 1.105986 -1.244622 -53.991242 -54.908868 2.478895 -12.453427 -0.043830 4.383597 -1.639639 -0.083052 0.051134 0.547988 0.000000 0.000000 0.000000 0.000000 0.000000 0.000000 0.000000 5.331189 -9.313172 -4.110764 87.550325 24.017432 39.078880 -179.013452 60.346608 179.868438 -10.672576 14.480969 -1.478847 0.174334 -0.983657 -0.000000 0.000000 0.000000 0.000000 0.000000 0.000000 0.000000 
3.519247 17.237573 1.041351 -176.286279 -76.031587 -172.625928 -11.779218 2.875786 0.357182 -4.465540 22.594466 -14.768308 -2.695868 -0.849830 -4.159314 0.661873 4.939671 3.691311 1.034500 -0.000000 -36.317900 9.281591 -0.929968 3.183291 2.371255 1.268048 -12.027385 2.639153 1.948479 -1.690914 0.264575 -2.047587 2.040041 -1.343500 -0.000000 -44.694300 2.175951 -6.238454 -4.673889 0.064674 -6.460986 -3.833602 -7.400921 -6.456579 -2.175431 12.050233 -9.920076 -0.611893 -2.484614 -0.275453 2.006574 0.000000 0.000000 0.000000 16.456394 -10.573654 0.735238 -3.724541 -53.667113 -51.951026 2.639355 -16.306084 -0.048256 4.531900 -1.693892 -0.088824 0.069255 0.582002 0.000000 0.000000 0.000000 0.000000 0.000000 0.000000 0.000000 5.248918 -9.414476 -4.006776 87.565615 23.767563 38.945053 -179.012274 60.387360 179.867520 -10.711335 14.428327 -1.479213 0.174913 -0.985316 -0.000000 0.000000 0.000000 0.000000 0.000000 0.000000 0.000000 
3.516849 17.234898 1.037093 -176.635597 -76.025705 -172.418300 -11.790646 2.871904 0.325396 -4.443093 22.616927 -14.594989 -2.693286 -0.847359 -4.056917 0.666828 4.999098 3.603145 1.036500 0.000000 -36.297600 9.279019 -0.945148 3.169940 2.292567 1.269087 -11.887013 2.621240 1.928116 -1.617071 0.264180 -2.003991 1.932167 -1.325701 0.000000 -44.774800 2.207704 -6.144908 -4.635289 0.047076 -6.368263 -3.865130 -7.454410 -6.374479 -2.299275 11.938913 -10.005133 -0.436241 -2.532574 -0.280879 2.057201 0.000000 0.000000 0.000000 15.719182 -10.399775 0.361521 -6.311717 -53.265530 -49.024458 2.756969 -20.489391 -0.052949 4.708575 -1.703935 -0.093560 0.086937 0.614823 0.000000 0.000000 0.000000 0.000000 0.000000 0.000000 0.000000 5.181409 -9.526810 -3.899643 87.576422 23.525138 38.809514 -179.007566 60.438606 179.866447 -10.763091 14.371146 -1.480875 0.175581 -0.986722 -0.000000 0.000000 0.000000 0.000000 0.000000 0.000000 0.000000 
3.514391 17.232312 1.032675 -176.947692 -76.041246 -172.248750 -11.800151 2.867832 0.297635 -4.413110 22.628129 -14.421244 -2.689364 -0.845472 -3.960659 0.671758 5.058278 3.519668 1.038800 -0.000000 -36.278500 9.277480 -0.961237 3.157054 2.223133 1.263497 -11.740455 2.603811 1.908173 -1.547725 0.262736 -1.968475 1.825075 -1.309700 0.000000 -44.841300 2.251492 -6.045600 -4.601306 0.026656 -6.271259 -3.892907 -7.523032 -6.285650 -2.400867 11.826755 -10.081509 -0.267101 -2.579644 -0.286186 2.105825 0.000000 0.000000 0.000000 14.928237 -10.156315 0.005660 -8.887680 -52.816887 -46.232998 2.813076 -24.923779 -0.057804 4.938901 -1.603428 -0.094668 0.102320 0.643804 0.000000 0.000000 0.000000 0.000000 0.000000 0.000000 0.000000 5.121197 -9.646919 -3.796210 87.586426 23.300373 38.684922 -178.999406 60.499837 179.865302 -10.818851 14.317551 -1.483334 0.176033 -0.987936 -0.000000 0.000000 0.000000 0.000000 0.000000 0.000000 0.000000 
3.511642 17.229890 1.028202 -177.220910 -76.071203 -172.114453 -11.808223 2.864018 0.274158 -4.378793 22.634627 -14.252202 -2.684796 -0.844458 -3.874076 0.676520 5.115987 3.443250 1.041500 0.000000 -36.260900 9.276406 -0.978499 3.147059 2.162796 1.255584 -11.591897 2.587551 1.889528 -1.488457 0.260316 -1.939473 1.724625 -1.295100 -0.000000 -44.894199 2.307237 -5.942151 -4.575537 0.004561 -6.171644 -3.915828 -7.603204 -6.191251 -2.474216 11.713843 -10.150554 -0.111438 -2.625076 -0.291245 2.150452 0.000000 0.000000 0.000000 14.104203 -9.838859 -0.324163 -11.464472 -52.311824 -43.604826 2.797091 -29.605581 -0.062751 5.229597 -1.377651 -0.090954 0.114700 0.668167 0.000000 0.000000 0.000000 0.000000 0.000000 0.000000 0.000000 5.067046 -9.773537 -3.698760 87.595506 23.101537 38.578332 -178.989337 60.569275 179.864173 -10.871241 14.271038 -1.485990 0.176148 -0.989062 -0.000000 0.000000 0.000000 0.000000 0.000000 0.000000 0.000000 
3.508520 17.227648 1.023670 -177.472301 -76.107819 -171.999922 -11.815894 2.860497 0.251881 -4.342228 22.643865 -14.080222 -2.680018 -0.844466 -3.804424 0.680954 5.172182 3.377616 1.044800 0.000000 -36.242700 9.275751 -0.996309 3.138354 2.107730 1.243897 -11.439083 2.572592 1.871959 -1.441847 0.257614 -1.908507 1.633637 -1.279700 0.000000 -44.938900 2.366152 -5.836137 -4.553522 -0.019444 -6.069990 -3.932134 -7.689921 -6.091413 -2.517694 11.604086 -10.218300 0.025697 -2.668941 -0.296001 2.189600 0.000000 0.000000 0.000000 13.300766 -9.457330 -0.626501 -14.114159 -51.731756 -41.155246 2.704170 -34.543378 -0.067542 5.549091 -1.069833 -0.082621 0.124709 0.688488 -0.000000 0.000000 0.000000 0.000000 0.000000 0.000000 0.000000 5.022740 -9.908963 -3.607079 87.598691 22.937974 38.493092 -178.980015 60.641578 179.863139 -10.916624 14.230609 -1.488143 0.176080 -0.990198 -0.000000 0.000000 0.000000 0.000000 0.000000 0.000000 0.000000 
3.504795 17.225661 1.019109 -177.700197 -76.144238 -171.902694 -11.823475 2.857479 0.231573 -4.305723 22.658529 -13.908168 -2.675154 -0.846013 -3.756929 0.685387 5.230191 3.325226 1.049600 0.000000 -36.224800 9.275081 -1.015023 3.133247 2.057865 1.232438 -11.287479 2.559531 1.856057 -1.411698 0.254864 -1.873210 1.556342 -1.263000 0.000000 -44.976300 2.427426 -5.728070 -4.538978 -0.043735 -5.966913 -3.940969 -7.778169 -5.986354 -2.527022 11.496462 -10.289609 0.138132 -2.711438 -0.300378 2.221481 0.000000 0.000000 0.000000 12.522259 -9.011009 -0.893807 -16.809835 -51.083448 -38.880337 2.531972 -39.688982 -0.072144 5.898282 -0.684850 -0.069077 0.131640 0.704590 -0.000000 0.000000 0.000000 0.000000 0.000000 0.000000 0.000000 4.985486 -10.053921 -3.522773 87.595299 22.815444 38.432580 -178.973399 60.711274 179.862268 -10.950732 14.198487 -1.489691 0.175897 -0.991521 -0.000000 0.000000 0.000000 0.000000 0.000000 0.000000 0.000000 
3.500007 17.223968 1.014590 -177.885171 -76.175356 -171.831643 -11.830801 2.855217 0.216008 -4.272548 22.688984 -13.756719 -2.672036 -0.849504 -3.723384 0.688888 5.281145 3.281861 1.054200 -0.000000 -36.212300 9.273294 -1.036528 3.138501 2.017567 1.230326 -11.149408 2.549470 1.843529 -1.403199 0.251700 -1.837732 1.496194 -1.246400 0.000001 -45.004000 2.498165 -5.616610 -4.543245 -0.065667 -5.862095 -3.944745 -7.864580 -5.875925 -2.504175 11.385245 -10.358106 0.227687 -2.752468 -0.304386 2.246610 0.000000 0.000000 0.000000 11.768720 -8.526600 -1.116216 -19.528235 -50.337992 -36.746949 2.281892 -45.015065 -0.076485 6.282017 -0.197855 -0.047928 0.134616 0.715931 -0.000000 0.000000 0.000000 0.000000 0.000000 0.000000 0.000000 4.942531 -10.196895 -3.446261 87.587443 22.721087 38.388362 -178.968164 60.774117 179.861548 -10.968351 14.179537 -1.490236 0.175309 -0.993260 -0.000000 0.000000 0.000000 0.000000 0.000000 0.000000 0.000000 
